# xmcd
#
# Track frame offsets:
# 150
# 4852
# 12077
# 21635
# 34266
# 54633
#
# Disc length: 922 seconds
#
# Revision: 0
# Processed by: cddbd v1.4b42PL0 Copyright (c) Steve Scherf et al.
# Submitted via: Audion 2.5.0 (http://www.panic.com/audion/)
#
DISCID=46039806
DTITLE=Bloody Matt Dillons - Six Songs
DYEAR=1900
DGENRE=
TTITLE0=55 Seconds
TTITLE1=Flat Willy
TTITLE2=The Liar Song
TTITLE3=Everything is Beautiful
TTITLE4=Stinkhole
TTITLE5=Lamb of God
EXTD=
EXTT0=
EXTT1=
EXTT2=
EXTT3=
EXTT4=
EXTT5=
PLAYORDER=
